<svg xmlns="http://www.w3.org/2000/svg" viewBox="0 0 24 24" fill="currentColor"><path d="M12 0c-6.626 0-12 5.372-12 12 0 6.627 5.374 12 12 12 6.627 0 12-5.373 12-12 0-6.628-5.373-12-12-12zm0 2c5.514 0 10 4.486 10 10s-4.486 10-10 10-10-4.486-10-10 4.486-10 10-10zm2.692 14.889c.161.115.368.143.553.073.185-.07.322-.228.354-.419.391-2.354 1.343-8.301 1.7-10.434.035-.203-.05-.404-.216-.522-.167-.117-.387-.126-.563-.024-2.549 1.477-10.088 5.816-13.108 7.556-.212.123-.316.361-.257.59.058.23.265.389.503.391 1.062.005 2.457.378 3.039.613.535.216 1.079.425 1.628.626.699.256 1.447.525 2.22.79.181.062.386.025.53-.1l.053-.046c.169-.142.384-.328.586-.507.589-.516 1.205-1.155 1.5-1.466.311-.332.631-.675.974-1.021z"/></svg>