<svg xmlns="http://www.w3.org/2000/svg" viewBox="0 0 24 24" fill="currentColor"><path d="M23.053 12.717c-2.513.284-3.688.563-3.688.563-1.648.38-2.23 1.015-2.275 1.698-.046.741.855 1.095 1.754.785.9-.317 1.882-1.001 1.882-1.001l.041-.027c.037-.027 1.78-1.294 2.284-1.68.2-.147.06-.373.002-.338zM.742 8.278h1.905v2.264H.742zm0-3.434h1.905v1.905H.742zm-.01 6.33c0-.3.176-.467.477-.467h1.962v9.275h-1.887c-.383 0-.552-.17-.552-.53zm7.9-2.896h3.92v9.317c0 1.033-.245 1.843-.733 2.43-.489.587-1.148.88-1.978.88-.603 0-1.978-.253-1.978-.253-.138-.043-.213-.17-.213-.339V7.742c.403-.255-.002-.212.982 1.536zM5.13 8.634H3.054v9.317H5.13zm0-3.79H3.054v1.905H5.13zm17.047-.265h-.128l-2.343 2.217c-2.416 2.136-4.838 4.23-7.268 6.36-.532.518-.602 1.011-.205 1.606 0 0 .254.44.487.83.72.954 1.455 1.905 2.173 2.866.17.227.319.467.488.694.319.424.848.41 1.188 0 .34-.41.679-.828 1.01-1.246l.022-.028c.127-.158.253-.316.38-.474.127-.158 1.082-1.365 1.26-1.59.177-.226.332-.488.432-.762.099-.274.127-.57.127-.87l.35-9.63c.035-.254-.127-.254-.24-.17-.551.395-1.103.79-1.654 1.186-1.102.79-2.197 1.59-3.3 2.37-.233.169-.233.424-.015.636.126.126.319.057.446-.014 1.75-1.236 3.484-2.486 5.235-3.735.127-.1.268-.2.382-.325.126-.14.099-.41-.064-.353-.551.24-1.037.606-1.547.932-.868.593-5.04 3.594-6.09 4.371-.57.424-1.272.042-1.272.042-.21-.142-.34-.34-.446-.55-.042-.086-.042-.227.029-.313l.453-.396c.418-.367.836-.735 1.275-1.123 2.43-2.136 4.838-4.3 7.268-6.437.127-.113.254-.254.404-.339.17-.1.446-.07.532.127.21.212.042.551.042 1.123v7.222c0 2.442 0 4.883-.014 7.325v.254c0 .169-.42.339-.169.438-.17.155-.382.113-.551-.014-.425-.339-.835-.69-1.26-1.028-1.315-1.09-2.644-2.165-3.96-3.254-.339-.283-.72-.297-1.058-.014-.551.452-1.103.932-1.654 1.384-.213.184-.425.368-.638.552-.17.17-.386.113-.5-.07-.113-.185-.198-.397-.255-.61-.17-.69.099-1.246.835-1.87 1.314-1.113 2.644-2.217 3.958-3.33.721-.606 1.428-1.224 2.149-1.815.154-.128.295-.27.418-.424.143-.184.128-.424-.014-.608-.127-.17-.382-.17-.594-.099-.85.395-1.7.776-2.536 1.186-2.656 1.224-5.296 2.47-7.951 3.693-.127.07-.296.056-.423-.014-.14-.071-.169-.2-.113-.353.016-.071.56-.128.113-.184.183-.17.395-.3.579-.453 1.853-1.407 3.706-2.827 5.56-4.234 1.905-1.435 3.811-2.883 5.717-4.332.56-.424 1.102-.861 1.662-1.3.17-.128.34-.296.587-.367.269-.071.524.43.622.3.42.113.07.255.07.41l-.014.31c-.14.91-.014 1.82-.014 2.729zm-2.727 8.09c.014.227.056.453.155.666.099.213.254.397.417.58 0 0 .269.24.326.296.256.226.507.467.763.692 1.217 1.102 2.429 2.203 3.646 3.304.043.43.085.084.156.1.085.14.183.014.255-.057.084-.084.154-.184.14-.31 0-.057-.014-.114-.029-.17-.052-.144-.15-.259-.26-.359-.35-.31-.7-.62-1.05-.931-.56-.494-1.13-.989-1.689-1.483-.574-.494-1.145-.989-1.704-1.496-.06-.056-.127-.113-.211-.156-.113-.056-.24-.042-.339.027-.97.084-.184.198-.226.339-.28.085-.42.169-.042.254 0-.014-.014-.028 0-.028-.56.057-.127.155-.07.155.07 0 .07-.07 0-.07-.84.028-.14.099-.154.14-.014-.042 0-.84.014-.127l.014-.07c0-.014-.014-.042-.028-.043-.7.085-.169.17-.84.268",
fill-rule="nonzero"/></svg>